<svg xmlns="http://www.w3.org/2000/svg" xmlns:xlink="http://www.w3.org/1999/xlink" viewBox="0,0,256,256" width="50px" height="50px" fill-rule="nonzero"><g fill="none" fill-rule="nonzero" stroke="none" stroke-width="1" stroke-linecap="butt" stroke-linejoin="miter" stroke-miterlimit="10" stroke-dasharray="" stroke-dashoffset="0" font-family="none" font-weight="none" font-size="none" text-anchor="none" style="mix-blend-mode: normal"><g transform="scale(2.56,2.56)"><path d="M77,12c-0.55228,0 -1,0.44772 -1,1c0,0.55228 0.44772,1 1,1c0.55228,0 1,-0.44772 1,-1c0,-0.55228 -0.44772,-1 -1,-1z" fill="#d7b4ab"></path><path d="M50,13c-20.43454,0 -37,16.56546 -37,37c0,20.43454 16.56546,37 37,37c20.43454,0 37,-16.56546 37,-37c0,-20.43454 -16.56546,-37 -37,-37z" fill="#e6dedc"></path><path d="M83,11c-2.20914,0 -4,1.79086 -4,4c0,2.20914 1.79086,4 4,4c2.20914,0 4,-1.79086 4,-4c0,-2.20914 -1.79086,-4 -4,-4z" fill="#d7b4ab"></path><path d="M87,22c-1.10457,0 -2,0.89543 -2,2c0,1.10457 0.89543,2 2,2c1.10457,0 2,-0.89543 2,-2c0,-1.10457 -0.89543,-2 -2,-2z" fill="#e6dedc"></path><path d="M81,74c-1.10457,0 -2,0.89543 -2,2c0,1.10457 0.89543,2 2,2c1.10457,0 2,-0.89543 2,-2c0,-1.10457 -0.89543,-2 -2,-2zM15,59c-2.20914,0 -4,1.79086 -4,4c0,2.20914 1.79086,4 4,4c2.20914,0 4,-1.79086 4,-4c0,-2.20914 -1.79086,-4 -4,-4z" fill="#d7b4ab"></path><path d="M25,85c-1.10457,0 -2,0.89543 -2,2c0,1.10457 0.89543,2 2,2c1.10457,0 2,-0.89543 2,-2c0,-1.10457 -0.89543,-2 -2,-2z" fill="#e6dedc"></path><path d="M18.5,49c-1.38071,0 -2.5,1.11929 -2.5,2.5c0,1.38071 1.11929,2.5 2.5,2.5c1.38071,0 2.5,-1.11929 2.5,-2.5c0,-1.38071 -1.11929,-2.5 -2.5,-2.5zM79.5,32c-0.82843,0 -1.5,0.67157 -1.5,1.5c0,0.82843 0.67157,1.5 1.5,1.5c0.82843,0 1.5,-0.67157 1.5,-1.5c0,-0.82843 -0.67157,-1.5 -1.5,-1.5z" fill="#ffffff"></path><g><path d="M35,72.3c-4,0 -7.3,-3.3 -7.3,-7.3v-30c0,-4 3.3,-7.3 7.3,-7.3h30c4,0 7.3,3.3 7.3,7.3v30c0,4 -3.3,7.3 -7.3,7.3z" fill="#e6dedc"></path><path d="M65,28.4c3.6,0 6.6,3 6.6,6.6v30c0,3.6 -3,6.6 -6.6,6.6h-30c-3.6,0 -6.6,-3 -6.6,-6.6v-30c0,-3.6 3,-6.6 6.6,-6.6h30M65,27h-30c-4.4,0 -8,3.6 -8,8v30c0,4.4 3.6,8 8,8h30c4.4,0 8,-3.6 8,-8v-30c0,-4.4 -3.6,-8 -8,-8z" fill="#472b29"></path></g><g fill="#fdfcee"><path d="M68.5,47.9v1.8v14.3c0,2.5 -2,4.5 -4.5,4.5h-28c-2.5,0 -4.5,-2 -4.5,-4.5v-28c0,-2.5 2,-4.5 4.5,-4.5h25.4h2.6c2.5,0 4.5,2 4.5,4.5v3.4v2v1v1.1v2.9v1.5"></path></g><g fill="#472b29"><path d="M68.5,47.4c-0.3,0 -0.5,-0.2 -0.5,-0.5v-3.9c0,-0.3 0.2,-0.5 0.5,-0.5c0.3,0 0.5,0.2 0.5,0.5v3.9c0,0.3 -0.2,0.5 -0.5,0.5z"></path></g><g fill="#472b29"><path d="M68.5,40.5c-0.3,0 -0.5,-0.2 -0.5,-0.5v-2c0,-0.3 0.2,-0.5 0.5,-0.5c0.3,0 0.5,0.2 0.5,0.5v2c0,0.3 -0.2,0.5 -0.5,0.5z"></path></g><g fill="#472b29"><path d="M64,69h-28c-2.8,0 -5,-2.2 -5,-5v-28c0,-2.8 2.2,-5 5,-5h25.4c0.3,0 0.5,0.2 0.5,0.5c0,0.3 -0.2,0.5 -0.5,0.5h-25.4c-2.2,0 -4,1.8 -4,4v28c0,2.2 1.8,4 4,4h28c2.2,0 4,-1.8 4,-4v-14.4c0,-0.3 0.2,-0.5 0.5,-0.5c0.3,0 0.5,0.2 0.5,0.5v14.4c0,2.8 -2.2,5 -5,5z"></path></g><g><path d="M50,58.5c-0.2,0 -6.3,-0.1 -8.1,-0.3c-0.1,0 -0.2,0 -0.3,0c-0.6,-0.1 -1.4,-0.2 -2,-0.9c-0.5,-0.5 -0.8,-1.8 -0.8,-2.3c0,0 -0.2,-2.1 -0.2,-4.1v-1.9c0,-2 0.2,-4.1 0.2,-4.1c0.1,-0.4 0.3,-1.7 0.8,-2.3c0.7,-0.8 1.4,-0.9 1.9,-0.9h0.2c3.3,-0.3 8.3,-0.3 8.3,-0.3c0.1,0 5.1,0 8.4,0.3h0.1c0.5,0.1 1.2,0.1 1.9,0.9c0.5,0.5 0.8,1.8 0.8,2.3c0,0 0.2,2.1 0.2,4.1v2c0,2 -0.2,4.1 -0.2,4.1c-0.1,0.4 -0.3,1.7 -0.8,2.3c-0.7,0.8 -1.4,0.9 -1.9,0.9h-0.2c-3.2,0.2 -8.1,0.2 -8.3,0.2z" fill="#ee3e54"></path><path d="M50,42c0,0 5,0 8.3,0.3h0.2c0.4,0 1,0.1 1.6,0.8c0.3,0.4 0.6,1.4 0.7,2c0,0 0.2,2 0.2,4v1.9c0,2 -0.2,4 -0.2,4c-0.1,0.6 -0.4,1.6 -0.7,2c-0.6,0.6 -1.2,0.7 -1.6,0.7h-0.1c-3.4,0.3 -8.4,0.3 -8.4,0.3c-0.1,0 -6.1,-0.1 -8,-0.2c-0.1,0 -0.2,0 -0.3,0c-0.5,-0.1 -1.2,-0.2 -1.7,-0.7c-0.3,-0.4 -0.6,-1.4 -0.7,-2c0,0 -0.2,-2 -0.2,-4v-2.1c0,-2 0.2,-4 0.2,-4c0.1,-0.6 0.4,-1.6 0.7,-2c0.6,-0.6 1.2,-0.7 1.6,-0.7h0.1c3.3,-0.3 8.2,-0.3 8.3,-0.3v0M50,41v0c0,0 -5,0 -8.4,0.3c-0.5,0.1 -1.5,0.1 -2.4,1.1c-0.7,0.8 -1,2.5 -1,2.5c0,0 -0.2,2.1 -0.2,4.1v2c0,2.1 0.2,4.1 0.2,4.1c0,0 0.2,1.8 1,2.5c0.9,1 2.1,1 2.6,1.1c2,0.2 8.2,0.3 8.2,0.3c0,0 5,0 8.4,-0.3c0.5,-0.1 1.5,-0.1 2.4,-1.1c0.7,-0.8 1,-2.5 1,-2.5c0,0 0.2,-2.1 0.2,-4.1v-2c0,-2.1 -0.2,-4.1 -0.2,-4.1c0,0 -0.2,-1.8 -1,-2.5c-0.9,-1 -1.9,-1 -2.4,-1.1c-3.4,-0.3 -8.4,-0.3 -8.4,-0.3z" fill="#472b29"></path></g><g><path d="M47.6,45.6v8.6l7.4,-4.3z" fill="#fdfcee"></path><path d="M47.1,55.1v-10.4l8.9,5.2zM48.1,46.4v6.9l5.9,-3.5z" fill="#472b29"></path></g></g></g></svg>